<?xml version="1.0" encoding="UTF-8"?>
<svg id="Layer_1" data-name="Layer 1" xmlns="http://www.w3.org/2000/svg" xmlns:xlink="http://www.w3.org/1999/xlink" viewBox="0 0 261.43 224.42">
  <defs>
    <style>
      .cls-1 {
        fill: #fff;
      }

      .cls-2 {
        clip-path: url(#clippath);
      }

      .cls-3 {
        clip-rule: evenodd;
        fill: none;
      }

      .cls-4 {
        fill: url(#linear-gradient);
      }
    </style>
    <clipPath id="clippath">
      <path class="cls-3" d="M99.78,94.35c1.4,2.43,.56,5.56-1.87,6.97-2.43,1.4-5.56,.56-6.97-1.87-1.41-2.42-.55-5.57,1.87-6.97,2.44-1.41,5.55-.56,6.97,1.87m30.92-53.55c-2.81,0-5.1-2.29-5.1-5.1s2.3-5.1,5.1-5.1c2.8,0,5.1,2.3,5.1,5.1s-2.29,5.09-5.1,5.1Zm32.49,81.44c-.16,.11-.32,.22-.47,.33-2.01,1.4-2.85,3.83-2.13,6.17,.73,2.34,2.8,3.87,5.25,3.89,12.37,.07,24.3-6.42,31.12-17.88,6.32-11.23,6.45-24.49,0-35.7-2.63-4.56-6.29-8.6-10.89-11.71-.7-.47-1.43-.93-2.17-1.36-3.07-1.77-6.29-3.03-9.57-3.82-.97-2.94-2.25-5.83-3.86-8.62-1.61-2.79-3.47-5.34-5.53-7.65-2.64-2.96-5.62-5.52-8.84-7.65-.79-.52-1.59-1.02-2.42-1.5-2.55-1.47-5.18-2.67-7.86-3.61-1.2-7.13-7.36-12.6-14.79-12.74-7.61-.02-14.12,5.16-15.39,12.76-.14,.83-.21,1.67-.21,2.54,0,6.28,3.86,11.95,9.73,14.25,7.07,2.73,15.02-.04,18.82-6.61,1.56,.63,3.1,1.37,4.6,2.24,1.5,.86,2.91,1.82,4.23,2.86,2.72,2.13,5.16,4.69,7.21,7.65,.57,.82,1.11,1.67,1.62,2.56,.51,.88,.98,1.78,1.4,2.68-3.51,.3-6.96,1.12-10.23,2.42-3.21,1.31-6.11,2.94-8.84,5.09-3.57,2.81-6.56,6.27-8.83,10.2-1.41,2.44-.57,5.56,1.87,6.97,2.44,1.41,5.56,.57,6.97-1.87,2.77-4.79,6.98-8.53,12.07-10.69,3.16-1.34,6.57-2.05,10.02-2.05,3.53,0,7.1,.72,10.48,2.25,.77,.35,1.53,.73,2.27,1.17,3.13,1.81,5.74,4.19,7.76,6.93,6.01,8.16,6.65,19.13,1.57,27.9-5.05,8.76-14.89,13.71-24.93,12.59Zm-1.57-27.89c1.4-2.43,4.54-3.27,6.97-1.87,2.43,1.4,3.27,4.54,1.87,6.97-1.39,2.43-4.55,3.26-6.97,1.87-2.44-1.41-3.26-4.53-1.87-6.97Zm-86.77-12.59c-.02-.19-.03-.38-.05-.58-.2-2.44-1.89-4.39-4.28-4.93-2.39-.54-4.75,.48-5.99,2.6-6.24,10.68-6.59,24.26-.07,35.9,6.57,11.09,17.98,17.83,30.92,17.85,5.26,0,10.59-1.15,15.58-3.58,.76-.37,1.52-.77,2.26-1.2,3.07-1.77,5.77-3.93,8.09-6.38,3.03,.63,6.17,.96,9.39,.96s6.36-.33,9.39-.96c3.88-.81,7.59-2.11,11.05-3.84,.84-.42,1.68-.87,2.51-1.35,2.55-1.47,4.9-3.15,7.06-5.01,6.78,2.52,14.59-.07,18.43-6.44,3.82-6.58,2.59-14.8-3.36-19.71-.65-.53-1.34-1.02-2.09-1.45-5.44-3.14-12.28-2.63-17.21,1.3-5.9,4.76-7.47,13.03-3.69,19.6-1.32,1.04-2.74,2-4.24,2.87-1.5,.87-3.03,1.61-4.59,2.23-3.21,1.29-6.64,2.12-10.23,2.42-1,.08-2.01,.13-3.03,.13s-2.03-.04-3.03-.13c1.49-3.19,2.51-6.59,3.02-10.07,.48-3.44,.51-6.76,0-10.2-.65-4.49-2.15-8.82-4.42-12.75-1.41-2.44-4.53-3.28-6.97-1.87-2.44,1.41-3.28,4.53-1.87,6.97,2.77,4.79,3.89,10.3,3.23,15.8-.41,3.41-1.51,6.71-3.23,9.7-1.76,3.06-4.18,5.79-7.18,7.95-.68,.49-1.4,.95-2.14,1.38-3.13,1.81-6.5,2.88-9.88,3.26-10.07,1.13-19.89-3.81-24.95-12.59-5.06-8.75-4.43-19.75,1.56-27.89Zm12.11-47.66l-.08-.08c-1.05-1.02-2.34-1.5-3.79-1.41-1.46,.08-2.68,.7-3.61,1.83-5.83,7.09-10.21,15.4-12.71,24.49-.39,1.41-.19,2.77,.59,4.01,.77,1.24,1.91,2.01,3.34,2.28l.12,.02c2.59,.49,5.1-1.08,5.79-3.62,2.11-7.68,5.82-14.71,10.74-20.7,1.67-2.03,1.5-4.99-.39-6.82Zm102.34,25.71l.11-.03c1.41-.4,2.46-1.27,3.12-2.58,.66-1.3,.73-2.68,.22-4.04-3.22-8.59-8.23-16.54-14.85-23.25-1.03-1.04-2.3-1.55-3.76-1.5-1.46,.05-2.7,.65-3.65,1.75l-.08,.09c-1.71,2-1.61,4.95,.24,6.83,5.6,5.67,9.83,12.39,12.56,19.65,.93,2.46,3.57,3.8,6.1,3.08Zm-73.44,75.77l-.03,.11c-.36,1.42-.13,2.77,.67,3.99,.8,1.22,1.95,1.97,3.39,2.21,9.05,1.5,18.44,1.14,27.56-1.24,1.41-.37,2.49-1.22,3.18-2.51,.69-1.29,.79-2.66,.3-4.04l-.04-.11c-.87-2.48-3.49-3.87-6.03-3.21-7.71,2.01-15.65,2.32-23.3,1.05-2.6-.43-5.07,1.19-5.71,3.75ZM154.07,25.5c.18,.08,.35,.16,.53,.24,2.22,1.05,4.75,.55,6.41-1.24,1.66-1.8,1.96-4.36,.74-6.49C155.62,7.26,144.04,.17,130.7,0c-12.88,.15-24.43,6.66-30.92,17.86-2.64,4.56-4.3,9.75-4.69,15.28-.06,.85-.09,1.7-.09,2.56,0,3.54,.52,6.97,1.48,10.2-2.06,2.31-3.92,4.87-5.53,7.65-1.61,2.79-2.89,5.67-3.86,8.62-1.24,3.77-1.97,7.63-2.2,11.48-.06,.94-.09,1.89-.09,2.85,0,2.94,.28,5.82,.81,8.61-5.57,4.61-7.23,12.67-3.64,19.18,3.79,6.6,11.53,9.64,18.75,6.95,.78-.29,1.55-.65,2.3-1.09,5.44-3.14,8.42-9.32,7.48-15.55-1.17-7.49-7.55-12.98-15.13-12.99-.24-1.67-.36-3.37-.36-5.1s.12-3.43,.36-5.1c.49-3.42,1.49-6.81,3.02-10.07,.43-.91,.89-1.8,1.4-2.68,.51-.88,1.05-1.74,1.62-2.56,2.02,2.89,4.45,5.47,7.21,7.65,2.74,2.13,5.6,3.82,8.83,5.11,4.21,1.69,8.71,2.55,13.25,2.55,2.82,0,5.1-2.28,5.1-5.1s-2.28-5.1-5.1-5.1c-5.54,0-10.87-1.78-15.3-5.11-2.74-2.06-5.06-4.67-6.79-7.65-1.77-3.06-2.92-6.51-3.29-10.2-.08-.84-.13-1.69-.13-2.55,0-3.62,.76-7.07,2.12-10.19,4.06-9.28,13.24-15.32,23.38-15.31,10.11,0,19.32,6.04,23.37,15.3Z"/>
    </clipPath>
    <linearGradient id="linear-gradient" x1="77.86" y1="146.41" x2="183.05" y2="-2.43" gradientUnits="userSpaceOnUse">
      <stop offset="0" stop-color="#7f00ff"/>
      <stop offset="1" stop-color="#e100ff"/>
    </linearGradient>
  </defs>
  <g class="cls-2">
    <rect class="cls-4" x="57.92" width="145.47" height="143.4"/>
  </g>
  <path class="cls-1" d="M232.74,219.77v4.44h-2.9v-4.47l-4.85-8.05h3.08l3.35,5.57,3.35-5.57h2.85l-4.87,8.09Zm-20.44-2.02h2.65v5.08c-.68,.51-1.47,.91-2.36,1.18-.89,.27-1.8,.41-2.7,.41-1.3,0-2.47-.28-3.51-.83-1.04-.55-1.85-1.32-2.44-2.31-.59-.98-.89-2.1-.89-3.34s.3-2.35,.89-3.34c.59-.98,1.41-1.75,2.46-2.31,1.05-.55,2.23-.83,3.54-.83,1.1,0,2.09,.19,2.99,.55,.89,.37,1.65,.91,2.25,1.61l-1.86,1.72c-.89-.94-1.97-1.41-3.24-1.41-.8,0-1.51,.17-2.13,.5-.62,.33-1.1,.81-1.45,1.41-.35,.61-.52,1.31-.52,2.09s.17,1.47,.52,2.08c.35,.61,.83,1.08,1.44,1.42,.61,.34,1.32,.51,2.1,.51,.84,0,1.59-.18,2.25-.54v-3.67Zm-26.59,4.21c.74,0,1.41-.17,2-.51,.6-.34,1.06-.81,1.4-1.42,.34-.61,.51-1.3,.51-2.08s-.17-1.47-.51-2.08c-.34-.61-.81-1.08-1.4-1.42-.6-.34-1.26-.51-2-.51s-1.41,.17-2,.51c-.6,.34-1.06,.81-1.4,1.42-.34,.61-.51,1.3-.51,2.08s.17,1.47,.51,2.08c.34,.61,.81,1.08,1.4,1.42,.6,.34,1.26,.51,2,.51Zm0,2.47c-1.3,0-2.47-.28-3.52-.84-1.04-.56-1.86-1.33-2.45-2.32-.59-.98-.89-2.09-.89-3.32s.3-2.34,.89-3.32c.59-.98,1.41-1.76,2.45-2.32,1.04-.56,2.22-.84,3.52-.84s2.47,.28,3.51,.84c1.04,.56,1.86,1.33,2.45,2.32s.89,2.09,.89,3.32-.3,2.34-.89,3.32-1.41,1.76-2.45,2.32c-1.04,.56-2.21,.84-3.51,.84Zm-25.75-12.74h2.9v10.16h6.28v2.36h-9.18v-12.53Zm-18.13,10.27c.74,0,1.41-.17,2-.51,.6-.34,1.06-.81,1.4-1.42,.34-.61,.51-1.3,.51-2.08s-.17-1.47-.51-2.08c-.34-.61-.81-1.08-1.4-1.42-.6-.34-1.26-.51-2-.51s-1.41,.17-2,.51c-.6,.34-1.06,.81-1.4,1.42-.34,.61-.51,1.3-.51,2.08s.17,1.47,.51,2.08c.34,.61,.81,1.08,1.4,1.42,.6,.34,1.26,.51,2,.51Zm0,2.47c-1.3,0-2.47-.28-3.52-.84-1.04-.56-1.86-1.33-2.45-2.32-.59-.98-.89-2.09-.89-3.32s.3-2.34,.89-3.32c.59-.98,1.41-1.76,2.45-2.32,1.04-.56,2.22-.84,3.52-.84s2.47,.28,3.51,.84c1.04,.56,1.86,1.33,2.45,2.32s.89,2.09,.89,3.32-.3,2.34-.89,3.32-1.41,1.76-2.45,2.32c-1.04,.56-2.21,.84-3.51,.84Zm-18.13-12.74v12.53h-2.38l-6.25-7.61v7.61h-2.86v-12.53h2.4l6.23,7.61v-7.61h2.86Zm-23.55,0v12.53h-2.9v-5.14h-5.69v5.14h-2.9v-12.53h2.9v4.94h5.69v-4.94h2.9Zm-27.7,12.74c-1.28,0-2.43-.28-3.46-.83-1.03-.55-1.84-1.32-2.43-2.31-.59-.98-.89-2.1-.89-3.34s.3-2.35,.89-3.34c.59-.98,1.4-1.75,2.43-2.31,1.03-.55,2.19-.83,3.48-.83,1.09,0,2.07,.19,2.94,.57,.88,.38,1.61,.93,2.21,1.65l-1.86,1.72c-.85-.98-1.9-1.47-3.15-1.47-.78,0-1.47,.17-2.08,.51-.61,.34-1.08,.81-1.42,1.42-.34,.61-.51,1.3-.51,2.08s.17,1.47,.51,2.08c.34,.61,.81,1.08,1.42,1.42,.61,.34,1.3,.51,2.08,.51,1.25,0,2.3-.5,3.15-1.49l1.86,1.72c-.6,.73-1.34,1.28-2.22,1.66-.88,.38-1.87,.57-2.95,.57Zm-17.36-2.54v2.33h-9.7v-12.53h9.47v2.33h-6.59v2.72h5.82v2.25h-5.82v2.9h6.82Zm-27.26-7.84h-4.01v-2.36h10.92v2.36h-4.01v10.16h-2.9v-10.16Z"/>
  <path class="cls-1" d="M261.43,198.44c-.94,.7-2.1,1.22-3.48,1.57-1.38,.35-2.82,.52-4.34,.52-3.94,0-6.99-1.01-9.15-3.02-2.16-2.01-3.23-4.97-3.23-8.87v-13.61h-5.11v-7.39h5.11v-8.07h9.61v8.07h8.25v7.39h-8.25v13.49c0,1.4,.36,2.47,1.08,3.23,.72,.76,1.74,1.14,3.05,1.14,1.52,0,2.81-.41,3.88-1.23l2.59,6.78Zm-42.26,2.09c-3.53,0-6.7-.73-9.52-2.19-2.81-1.46-5.01-3.48-6.59-6.07-1.58-2.59-2.37-5.52-2.37-8.81s.79-6.22,2.37-8.81c1.58-2.59,3.78-4.61,6.59-6.07,2.81-1.46,5.99-2.19,9.52-2.19s6.54,.73,9.15,2.19c2.61,1.46,4.51,3.54,5.7,6.25l-7.45,4c-1.72-3.04-4.21-4.56-7.45-4.56-2.5,0-4.58,.82-6.22,2.46s-2.46,3.88-2.46,6.71,.82,5.07,2.46,6.71c1.64,1.64,3.72,2.46,6.22,2.46,3.29,0,5.77-1.52,7.45-4.56l7.45,4.07c-1.19,2.63-3.09,4.68-5.7,6.16-2.61,1.48-5.66,2.22-9.15,2.22Zm-39.61-26.86c-2.18,0-4,.62-5.48,1.85-1.48,1.23-2.38,2.92-2.71,5.05h16.32c-.33-2.09-1.23-3.77-2.71-5.02-1.48-1.25-3.29-1.88-5.42-1.88Zm17.19,9.92c0,.12-.06,.99-.18,2.59h-25.07c.45,2.05,1.52,3.68,3.2,4.87,1.68,1.19,3.78,1.79,6.28,1.79,1.72,0,3.25-.26,4.59-.77,1.33-.51,2.58-1.32,3.73-2.43l5.11,5.54c-3.12,3.57-7.68,5.36-13.67,5.36-3.74,0-7.04-.73-9.92-2.19-2.87-1.46-5.09-3.48-6.65-6.07-1.56-2.59-2.34-5.52-2.34-8.81s.77-6.17,2.31-8.78c1.54-2.61,3.65-4.64,6.34-6.1,2.69-1.46,5.7-2.19,9.02-2.19s6.18,.7,8.81,2.09c2.63,1.4,4.69,3.4,6.19,6.01,1.5,2.61,2.25,5.64,2.25,9.09Zm-55.25-17.19c4.11,0,7.42,1.23,9.95,3.7,2.53,2.46,3.79,6.12,3.79,10.96v18.97h-9.61v-17.49c0-2.63-.57-4.59-1.72-5.88-1.15-1.29-2.81-1.94-4.99-1.94-2.42,0-4.35,.75-5.79,2.25-1.44,1.5-2.16,3.73-2.16,6.68v16.39h-9.61v-33.14h9.18v3.88c1.27-1.4,2.85-2.47,4.74-3.23,1.89-.76,3.96-1.14,6.22-1.14Zm-42.57,0c4.11,0,7.42,1.23,9.95,3.7,2.53,2.46,3.79,6.12,3.79,10.96v18.97h-9.61v-17.49c0-2.63-.57-4.59-1.72-5.88-1.15-1.29-2.81-1.94-4.99-1.94-2.42,0-4.35,.75-5.79,2.25-1.44,1.5-2.16,3.73-2.16,6.68v16.39h-9.61v-33.14h9.18v3.88c1.27-1.4,2.85-2.47,4.74-3.23,1.89-.76,3.96-1.14,6.22-1.14Zm-44.72,26.24c2.46,0,4.49-.83,6.07-2.49,1.58-1.66,2.37-3.89,2.37-6.68s-.79-5.02-2.37-6.68c-1.58-1.66-3.6-2.49-6.07-2.49s-4.5,.83-6.1,2.49c-1.6,1.66-2.4,3.89-2.4,6.68s.8,5.02,2.4,6.68c1.6,1.66,3.63,2.49,6.1,2.49Zm0,7.88c-3.49,0-6.62-.73-9.39-2.19-2.77-1.46-4.94-3.48-6.5-6.07-1.56-2.59-2.34-5.52-2.34-8.81s.78-6.22,2.34-8.81c1.56-2.59,3.73-4.61,6.5-6.07,2.77-1.46,5.9-2.19,9.39-2.19s6.61,.73,9.36,2.19c2.75,1.46,4.91,3.48,6.47,6.07s2.34,5.52,2.34,8.81-.78,6.22-2.34,8.81-3.72,4.61-6.47,6.07c-2.75,1.46-5.87,2.19-9.36,2.19Zm-35.73,0c-3.53,0-6.7-.73-9.52-2.19-2.81-1.46-5.01-3.48-6.59-6.07-1.58-2.59-2.37-5.52-2.37-8.81s.79-6.22,2.37-8.81c1.58-2.59,3.78-4.61,6.59-6.07,2.81-1.46,5.99-2.19,9.52-2.19s6.54,.73,9.15,2.19c2.61,1.46,4.51,3.54,5.7,6.25l-7.45,4c-1.72-3.04-4.21-4.56-7.45-4.56-2.5,0-4.58,.82-6.22,2.46-1.64,1.64-2.46,3.88-2.46,6.71s.82,5.07,2.46,6.71c1.64,1.64,3.72,2.46,6.22,2.46,3.29,0,5.77-1.52,7.45-4.56l7.45,4.07c-1.19,2.63-3.09,4.68-5.7,6.16-2.61,1.48-5.66,2.22-9.15,2.22Z"/>
</svg>